<?xml version="1.0" encoding="UTF-8" standalone="no"?>
<!-- Created with Inkscape (http://www.inkscape.org/) -->

<svg
   width="210mm"
   height="297mm"
   viewBox="0 0 210 297"
   version="1.1"
   id="svg1"
   inkscape:version="1.3 (0e150ed6c4, 2023-07-21)"
   sodipodi:docname="drw.svg"
   xmlns:inkscape="http://www.inkscape.org/namespaces/inkscape"
   xmlns:sodipodi="http://sodipodi.sourceforge.net/DTD/sodipodi-0.dtd"
   xmlns="http://www.w3.org/2000/svg"
   xmlns:svg="http://www.w3.org/2000/svg">
  <sodipodi:namedview
     id="namedview1"
     pagecolor="#ffffff"
     bordercolor="#000000"
     borderopacity="0.25"
     inkscape:showpageshadow="2"
     inkscape:pageopacity="0.0"
     inkscape:pagecheckerboard="0"
     inkscape:deskcolor="#d1d1d1"
     inkscape:document-units="mm"
     inkscape:zoom="0.69219276"
     inkscape:cx="281.71343"
     inkscape:cy="676.83458"
     inkscape:window-width="1920"
     inkscape:window-height="991"
     inkscape:window-x="-9"
     inkscape:window-y="-9"
     inkscape:window-maximized="1"
     inkscape:current-layer="layer1" />
  <defs
     id="defs1" />
  <g
     inkscape:label="Layer 1"
     inkscape:groupmode="layer"
     id="layer1">
    <rect
       style="opacity:0.912322;fill:#1a1a1a;fill-opacity:0.77;stroke:none;stroke-width:11;stroke-dasharray:none;stroke-opacity:0.997531"
       id="rect6"
       width="290.50192"
       height="160.54054"
       x="-29.050196"
       y="155.22878"
       ry="11.84942" />
    <g
       id="g7">
      <path
         id="rect1"
         style="opacity:1;fill:none;fill-opacity:0.77;stroke:#000000;stroke-width:11;stroke-opacity:0.997531"
         d="m 58.689792,17.965107 c -6.564573,0 -11.849406,5.284833 -11.849406,11.849406 v 86.386457 c 0,6.56457 5.284833,11.84941 11.849406,11.84941 h 76.829928 c 6.56458,0 11.84941,-5.28484 11.84941,-11.84941 V 48.544631 h -18.72961 c -6.56457,0 -11.8494,-5.28483 -11.8494,-11.849401 V 17.965107 Z" />
      <path
         style="opacity:1;fill:none;fill-opacity:0.77;stroke:#000000;stroke-width:11;stroke-dasharray:none;stroke-opacity:0.997531"
         d="M 49.946818,124.21498 119.89656,44.709251"
         id="path2" />
      <path
         style="opacity:1;fill:none;fill-opacity:0.77;stroke:#000000;stroke-width:11;stroke-dasharray:none;stroke-opacity:0.997531"
         d="M 49.652816,22.133568 144.26258,124.21511"
         id="path3" />
    </g>
    <g
       id="g8">
      <path
         id="path4"
         style="fill:none;fill-opacity:0.77;stroke:#ffffff;stroke-width:5;stroke-dasharray:none;stroke-opacity:1"
         d="m 59.83651,165.17963 c -6.564573,0 -11.849406,5.28484 -11.849406,11.84941 v 86.38646 c 0,6.56457 5.284833,11.84941 11.849406,11.84941 h 76.82993 c 6.56458,0 11.84941,-5.28484 11.84941,-11.84941 v -67.65634 h -18.72961 c -6.56457,0 -11.8494,-5.28483 -11.8494,-11.8494 v -18.73013 z" />
      <path
         style="fill:none;fill-opacity:0.77;stroke:#ffffff;stroke-width:5;stroke-dasharray:none;stroke-opacity:1"
         d="M 51.093536,271.42951 121.04328,191.92378"
         id="path5" />
      <path
         style="fill:none;fill-opacity:0.77;stroke:#ffffff;stroke-width:5;stroke-dasharray:none;stroke-opacity:1"
         d="M 50.799534,169.3481 145.4093,271.42964"
         id="path6" />
    </g>
  </g>
</svg>
